<svg width="128" height="128" viewBox="0 0 128 128" fill="none" xmlns="http://www.w3.org/2000/svg">
  <rect width="128" height="128" rx="28" fill="url(#bg)"/>
  <path d="M64 24C41.9 24 24 41.9 24 64C24 86.1 41.9 104 64 104C86.1 104 104 86.1 104 64C104 41.9 86.1 24 64 24ZM64 34C75.1 34 84 42.9 84 54C84 65.1 75.1 74 64 74C52.9 74 44 65.1 44 54C44 42.9 52.9 34 64 34ZM38 90C41.9 80.8 52.2 74 64 74C75.8 74 86.1 80.8 90 90H38Z" fill="white"/>
  <circle cx="95" cy="33" r="9" fill="#FDE047"/>
  <defs>
    <linearGradient id="bg" x1="16" y1="10" x2="113" y2="117" gradientUnits="userSpaceOnUse">
      <stop stop-color="#2563EB"/>
      <stop offset="1" stop-color="#0F172A"/>
    </linearGradient>
  </defs>
</svg>
